<svg xmlns="http://www.w3.org/2000/svg" viewBox="685.5 304 500 500" width="666.667" height="666.667" xmlns:v="https://vecta.io/nano"><path d="M729.618 304h411.764c24.35 0 44.118 19.768 44.118 44.118v411.764c0 24.35-19.768 44.118-44.118 44.118H729.618c-24.35 0-44.118-19.768-44.118-44.118V348.118c0-24.35 19.768-44.118 44.118-44.118z"/><path d="M935.4 680h0q-37.1 0-59.15-20.475h0Q854.2 639.05 854.2 604.4h0V493.1q0-34.65 22.05-55.125h0Q898.3 417.5 935.4 417.5h0q24.15 0 42.525 9.275h0q18.375 9.275 28.525 26.425h0q10.15 17.15 10.15 39.9h0-44.1q0-17.85-9.625-27.65h0q-9.625-9.8-27.475-9.8h0q-17.85 0-27.65 9.625h0q-9.8 9.625-9.8 27.475h0V604.4q0 17.85 9.8 27.65h0q9.8 9.8 27.65 9.8h0q17.5 0 27.3-9.8h0q9.8-9.8 9.8-27.65h0v-25.9h-43.4v-37.8h87.5v63.7q0 22.75-10.15 39.9h0q-10.15 17.15-28.525 26.425h0Q959.55 680 935.4 680h0z" fill="#fff"/></svg>